<?xml version="1.0" encoding="utf-8"?>
<!-- Generator: Adobe Illustrator 16.0.0, SVG Export Plug-In . SVG Version: 6.00 Build 0)  -->
<!DOCTYPE svg PUBLIC "-//W3C//DTD SVG 1.0//EN" "http://www.w3.org/TR/2001/REC-SVG-20010904/DTD/svg10.dtd">
<svg version="1.0" id="Layer_1" xmlns="http://www.w3.org/2000/svg" xmlns:xlink="http://www.w3.org/1999/xlink" x="0px" y="0px"
	 width="100px" height="100px" viewBox="0 0 100 100" enable-background="new 0 0 100 100" xml:space="preserve">
<path d="M83.333,10v6.667h-6.666V10H23.333v6.667h-6.666V10H10v26.667h13.333v5.853l17.074,17.073
	c3.887,3.896,3.89,10.231,0.013,14.131l-9.609,9.609h45.856v-6.666h6.666v6.666H90V10H83.333z M23.333,30h-6.666v-6.667h6.666V30z
	 M83.333,70h-6.666v-6.667h6.666V70z M83.333,56.667h-6.666V50h6.666V56.667z M83.333,43.333h-6.666v-6.667h6.666V43.333z
	 M83.333,30h-6.666v-6.667h6.666V30z"/>
<path d="M35.693,64.307L15.69,44.304c-0.6-0.6-1.436-0.977-2.36-0.974c-1.836,0-3.327,1.494-3.327,3.333L10,86.667
	C10.003,88.506,11.491,90,13.333,90c0.922-0.003,1.755-0.381,2.36-0.977l20-20.003C36.989,67.718,36.989,65.605,35.693,64.307z"/>
</svg>
